name ./resultDataOpenSim/trcMotMarkerGrf/sub10/grf-13-03.mot
datacolumns 19
datarows 27
range 0.48400000 0.58800000
endheader

                time	     ground_force_vx	     ground_force_vy	     ground_force_vz	     ground_force_px	     ground_force_py	     ground_force_pz	   l_ground_force_vx	   l_ground_force_vy	   l_ground_force_vz	   l_ground_force_px	   l_ground_force_py	   l_ground_force_pz	     ground_torque_x	     ground_torque_y	     ground_torque_z	   l_ground_torque_x	   l_ground_torque_y	   l_ground_torque_z	
          0.48400000	         65.09573897	        634.60894270	        -68.03857749	         -0.85636364	          0.00000000	          0.13164011	          0.00000000	          0.00000000	          0.00000000	          0.00000000	          0.00000000	          0.00000000	          0.00000000	          5.10795923	          0.00000000	          0.00000000	          0.00000000	          0.00000000	
          0.48800000	         67.15527770	        650.68682284	        -69.38008691	         -0.85390034	          0.00000000	          0.13160080	          0.00000000	          0.00000000	          0.00000000	          0.00000000	          0.00000000	          0.00000000	          0.00000000	          5.05668387	          0.00000000	          0.00000000	          0.00000000	          0.00000000	
          0.49200000	         69.73025995	        666.80745503	        -70.18598261	         -0.85152579	          0.00000000	          0.13153499	          0.00000000	          0.00000000	          0.00000000	          0.00000000	          0.00000000	          0.00000000	          0.00000000	          5.01267758	          0.00000000	          0.00000000	          0.00000000	          0.00000000	
          0.49600000	         72.86861739	        682.96894442	        -70.50510858	         -0.84926974	          0.00000000	          0.13144110	          0.00000000	          0.00000000	          0.00000000	          0.00000000	          0.00000000	          0.00000000	          0.00000000	          4.97340079	          0.00000000	          0.00000000	          0.00000000	          0.00000000	
          0.50000000	         76.51807767	        699.23724086	        -70.43931269	         -0.84715237	          0.00000000	          0.13129950	          0.00000000	          0.00000000	          0.00000000	          0.00000000	          0.00000000	          0.00000000	          0.00000000	          4.93361387	          0.00000000	          0.00000000	          0.00000000	          0.00000000	
          0.50400000	         80.56680794	        715.69145869	        -70.13526229	         -0.84521444	          0.00000000	          0.13107805	          0.00000000	          0.00000000	          0.00000000	          0.00000000	          0.00000000	          0.00000000	          0.00000000	          4.88610566	          0.00000000	          0.00000000	          0.00000000	          0.00000000	
          0.50800000	         84.91571396	        732.25621791	        -69.78487687	         -0.84348750	          0.00000000	          0.13079878	          0.00000000	          0.00000000	          0.00000000	          0.00000000	          0.00000000	          0.00000000	          0.00000000	          4.82300064	          0.00000000	          0.00000000	          0.00000000	          0.00000000	
          0.51200000	         89.51390106	        748.65293020	        -69.58680641	         -0.84195422	          0.00000000	          0.13052831	          0.00000000	          0.00000000	          0.00000000	          0.00000000	          0.00000000	          0.00000000	          0.00000000	          4.73776143	          0.00000000	          0.00000000	          0.00000000	          0.00000000	
          0.51600000	         94.36029610	        764.59316297	        -69.65880565	         -0.84056300	          0.00000000	          0.13030947	          0.00000000	          0.00000000	          0.00000000	          0.00000000	          0.00000000	          0.00000000	          0.00000000	          4.62773960	          0.00000000	          0.00000000	          0.00000000	          0.00000000	
          0.52000000	         99.52299395	        779.99685582	        -69.95761772	         -0.83930425	          0.00000000	          0.13010787	          0.00000000	          0.00000000	          0.00000000	          0.00000000	          0.00000000	          0.00000000	          0.00000000	          4.49658339	          0.00000000	          0.00000000	          0.00000000	          0.00000000	
          0.52400000	        105.13488350	        794.97338018	        -70.27480293	         -0.83822167	          0.00000000	          0.12983767	          0.00000000	          0.00000000	          0.00000000	          0.00000000	          0.00000000	          0.00000000	          0.00000000	          4.35550643	          0.00000000	          0.00000000	          0.00000000	          0.00000000	
          0.52800000	        111.31729154	        809.59232250	        -70.30858805	         -0.83734659	          0.00000000	          0.12943474	          0.00000000	          0.00000000	          0.00000000	          0.00000000	          0.00000000	          0.00000000	          0.00000000	          4.22262513	          0.00000000	          0.00000000	          0.00000000	          0.00000000	
          0.53200000	        118.10983657	        823.68279673	        -69.74996070	         -0.83663956	          0.00000000	          0.12889436	          0.00000000	          0.00000000	          0.00000000	          0.00000000	          0.00000000	          0.00000000	          0.00000000	          4.12017463	          0.00000000	          0.00000000	          0.00000000	          0.00000000	
          0.53600000	        125.48172807	        836.84796120	        -68.34670320	         -0.83602868	          0.00000000	          0.12825516	          0.00000000	          0.00000000	          0.00000000	          0.00000000	          0.00000000	          0.00000000	          0.00000000	          4.07012910	          0.00000000	          0.00000000	          0.00000000	          0.00000000	
          0.54000000	        133.37961927	        848.67983651	        -65.94399279	         -0.83546676	          0.00000000	          0.12755311	          0.00000000	          0.00000000	          0.00000000	          0.00000000	          0.00000000	          0.00000000	          0.00000000	          4.08926649	          0.00000000	          0.00000000	          0.00000000	          0.00000000	
          0.54400000	        141.73764887	        858.95212756	        -62.50967890	         -0.83495784	          0.00000000	          0.12678478	          0.00000000	          0.00000000	          0.00000000	          0.00000000	          0.00000000	          0.00000000	          0.00000000	          4.18487665	          0.00000000	          0.00000000	          0.00000000	          0.00000000	
          0.54800000	        150.45102380	        867.57710899	        -58.15061852	         -0.83452595	          0.00000000	          0.12592628	          0.00000000	          0.00000000	          0.00000000	          0.00000000	          0.00000000	          0.00000000	          0.00000000	          4.35218529	          0.00000000	          0.00000000	          0.00000000	          0.00000000	
          0.55200000	        159.36370112	        874.40420828	        -53.10481099	         -0.83416446	          0.00000000	          0.12498205	          0.00000000	          0.00000000	          0.00000000	          0.00000000	          0.00000000	          0.00000000	          0.00000000	          4.57420674	          0.00000000	          0.00000000	          0.00000000	          0.00000000	
          0.55600000	        168.29550201	        879.13169449	        -47.70002667	         -0.83382880	          0.00000000	          0.12399710	          0.00000000	          0.00000000	          0.00000000	          0.00000000	          0.00000000	          0.00000000	          0.00000000	          4.82408652	          0.00000000	          0.00000000	          0.00000000	          0.00000000	
          0.56000000	        177.09260120	        881.42346793	        -42.30112112	         -0.83347454	          0.00000000	          0.12302342	          0.00000000	          0.00000000	          0.00000000	          0.00000000	          0.00000000	          0.00000000	          0.00000000	          5.06920750	          0.00000000	          0.00000000	          0.00000000	          0.00000000	
          0.56400000	        185.65895825	        881.05376681	        -37.26513680	         -0.83309633	          0.00000000	          0.12208471	          0.00000000	          0.00000000	          0.00000000	          0.00000000	          0.00000000	          0.00000000	          0.00000000	          5.27586967	          0.00000000	          0.00000000	          0.00000000	          0.00000000	
          0.56800000	        193.94520806	        877.89988896	        -32.89768987	         -0.83273155	          0.00000000	          0.12117351	          0.00000000	          0.00000000	          0.00000000	          0.00000000	          0.00000000	          0.00000000	          0.00000000	          5.41349875	          0.00000000	          0.00000000	          0.00000000	          0.00000000	
          0.57200000	        201.92521277	        871.80360332	        -29.40510325	         -0.83242482	          0.00000000	          0.12027996	          0.00000000	          0.00000000	          0.00000000	          0.00000000	          0.00000000	          0.00000000	          0.00000000	          5.45793282	          0.00000000	          0.00000000	          0.00000000	          0.00000000	
          0.57600000	        209.59643998	        862.46792099	        -26.85042987	         -0.83218994	          0.00000000	          0.11942494	          0.00000000	          0.00000000	          0.00000000	          0.00000000	          0.00000000	          0.00000000	          0.00000000	          5.39391366	          0.00000000	          0.00000000	          0.00000000	          0.00000000	
          0.58000000	        216.98421837	        849.55105948	        -25.12699568	         -0.83200671	          0.00000000	          0.11866014	          0.00000000	          0.00000000	          0.00000000	          0.00000000	          0.00000000	          0.00000000	          0.00000000	          5.21695613	          0.00000000	          0.00000000	          0.00000000	          0.00000000	
          0.58400000	        224.11175275	        832.94210614	        -23.97581258	         -0.83185733	          0.00000000	          0.11801486	          0.00000000	          0.00000000	          0.00000000	          0.00000000	          0.00000000	          0.00000000	          0.00000000	          4.93419238	          0.00000000	          0.00000000	          0.00000000	          0.00000000	
          0.58800000	        230.96528405	        812.91584808	        -23.05551247	         -0.83178421	          0.00000000	          0.11743953	          0.00000000	          0.00000000	          0.00000000	          0.00000000	          0.00000000	          0.00000000	          0.00000000	          4.56325071	          0.00000000	          0.00000000	          0.00000000	          0.00000000	
